<svg width="100" height="100" viewBox="0 0 100 100" fill="none" xmlns="http://www.w3.org/2000/svg">
<rect width="100" height="100" rx="12" fill="#2B2B2B"/>
<path d="M29.6013 29.047C26.5079 29.047 24 31.5733 24 34.6897C24 37.806 26.5079 40.3322 29.6013 40.3322H50.9804C54.074 40.3322 56.5818 37.806 56.5818 34.6897C56.5818 31.5733 54.074 29.047 50.9804 29.047H29.6013Z" fill="#8381DC"/>
<path d="M24 14V25.2853H33.5039L51.4285 14H24Z" fill="#8381DC"/>
<path d="M55.4615 55.3793C66.8046 55.3793 76 46.1163 76 34.6897C76 23.2631 66.8046 14 55.4615 14L37.1624 25.2853H55.4615C60.6175 25.2853 64.7972 29.4958 64.7972 34.6897C64.7972 39.8835 60.6175 44.0941 55.4615 44.0941H24V55.3793H55.4615Z" fill="#8381DC"/>
<path d="M29.5771 70.953C26.497 70.953 24 68.4267 24 65.3103C24 62.194 26.497 59.6678 29.5771 59.6678H50.8636C53.9438 59.6678 56.4408 62.194 56.4408 65.3103C56.4408 68.4267 53.9438 70.953 50.8636 70.953H29.5771Z" fill="#8381DC"/>
<path d="M24 86V74.7147H33.4628L51.3098 86H24Z" fill="#8381DC"/>
<path d="M55.3253 44.6207C66.6193 44.6207 75.7749 53.8837 75.7749 65.3103C75.7749 76.7369 66.6193 86 55.3253 86L37.1055 74.7147H55.3253C60.459 74.7147 64.6206 70.5043 64.6206 65.3103C64.6206 60.1165 60.459 55.9059 55.3253 55.9059H24V44.6207H55.3253Z" fill="#8381DC"/>
</svg>
