<svg width="180" height="150" viewBox="0 0 180 150" fill="none" xmlns="http://www.w3.org/2000/svg">
<path d="M127.5 135H37.5C31.5326 135 25.8097 132.629 21.5901 128.41C17.3705 124.19 15 118.467 15 112.5V52.5C15 50.5109 14.2098 48.6032 12.8033 47.1967C11.3968 45.7902 9.48912 45 7.5 45C5.51088 45 3.60322 45.7902 2.1967 47.1967C0.790176 48.6032 0 50.5109 0 52.5L0 112.5C0 122.446 3.95088 131.984 10.9835 139.017C18.0161 146.049 27.5544 150 37.5 150H127.5C129.489 150 131.397 149.21 132.803 147.803C134.21 146.397 135 144.489 135 142.5C135 140.511 134.21 138.603 132.803 137.197C131.397 135.79 129.489 135 127.5 135ZM157.5 0H52.5C46.5326 0 40.8097 2.37053 36.5901 6.5901C32.3705 10.8097 30 16.5326 30 22.5V97.5C30 103.467 32.3705 109.19 36.5901 113.41C40.8097 117.629 46.5326 120 52.5 120H157.5C163.467 120 169.19 117.629 173.41 113.41C177.629 109.19 180 103.467 180 97.5V22.5C180 16.5326 177.629 10.8097 173.41 6.5901C169.19 2.37053 163.467 0 157.5 0V0ZM154.425 15L110.325 59.1C109.628 59.803 108.798 60.3609 107.884 60.7417C106.97 61.1224 105.99 61.3185 105 61.3185C104.01 61.3185 103.03 61.1224 102.116 60.7417C101.202 60.3609 100.372 59.803 99.675 59.1L55.575 15H154.425ZM165 97.5C165 99.4891 164.21 101.397 162.803 102.803C161.397 104.21 159.489 105 157.5 105H52.5C50.5109 105 48.6032 104.21 47.1967 102.803C45.7902 101.397 45 99.4891 45 97.5V25.275L89.1 69.375C93.3188 73.5885 99.0375 75.9552 105 75.9552C110.963 75.9552 116.681 73.5885 120.9 69.375L165 25.275V97.5Z" fill="#F0F0F0"/>
</svg>
