<svg width="153" height="150" viewBox="0 0 153 150" fill="none" xmlns="http://www.w3.org/2000/svg">
<g clip-path="url(#clip0_108_11)">
<path fill-rule="evenodd" clip-rule="evenodd" d="M76.5 0C34.2534 0 0 34.4342 0 76.9038C0 110.88 21.9151 139.711 52.3174 149.873C56.1431 150.586 57.5492 148.204 57.5492 146.167C57.5492 144.333 57.4732 138.272 57.4478 131.853C36.1662 136.501 31.6818 122.786 31.6818 122.786C28.1982 113.898 23.1945 111.529 23.1945 111.529C16.2526 106.754 23.7139 106.855 23.7139 106.855C31.3905 107.403 35.4441 114.776 35.4441 114.776C42.272 126.53 53.3435 123.13 57.7012 121.169C58.3852 116.203 60.3741 112.802 62.5529 110.88C45.5656 108.931 27.7042 102.335 27.7042 72.8797C27.7042 64.4876 30.6937 57.6237 35.5835 52.237C34.7854 50.3014 32.1759 42.4824 36.3182 31.8873C36.3182 31.8873 42.7407 29.8243 57.3592 39.7699C63.465 38.0635 70.0015 37.2103 76.5127 37.1848C83.0112 37.2103 89.5604 38.0635 95.6788 39.7699C110.285 29.8243 116.694 31.8873 116.694 31.8873C120.862 42.4824 118.24 50.3014 117.442 52.237C122.344 57.6237 125.308 64.4876 125.308 72.8797C125.308 102.411 107.409 108.918 90.3838 110.829C93.1326 113.21 95.5775 117.896 95.5775 125.066C95.5775 135.355 95.4888 143.633 95.4888 146.167C95.4888 148.217 96.8696 150.611 100.746 149.86C131.123 139.685 153.013 110.867 153.013 76.9038C153 34.4342 118.747 0 76.5 0Z" fill="#F0F0F0"/>
<path d="M28.971 110.408C28.8063 110.79 28.1982 110.905 27.6535 110.638C27.0962 110.383 26.7921 109.861 26.9695 109.479C27.1342 109.084 27.7295 108.982 28.2869 109.237C28.8443 109.491 29.161 110.014 28.971 110.396V110.408Z" fill="#F0F0F0"/>
<path d="M32.0745 113.885C31.7072 114.229 30.9978 114.063 30.5164 113.528C30.0097 112.993 29.921 112.28 30.2884 111.936C30.6684 111.593 31.3525 111.758 31.8592 112.293C32.3659 112.841 32.4546 113.541 32.0745 113.885Z" fill="#F0F0F0"/>
<path d="M35.0894 118.316C34.6207 118.648 33.848 118.342 33.3793 117.654C32.9106 116.967 32.9106 116.152 33.3793 115.821C33.848 115.489 34.6081 115.782 35.0894 116.47C35.5581 117.17 35.5581 117.985 35.0894 118.316V118.316Z" fill="#F0F0F0"/>
<path d="M39.2191 122.595C38.801 123.066 37.9016 122.939 37.2556 122.302C36.5842 121.678 36.4069 120.8 36.8249 120.341C37.2556 119.87 38.1423 120.01 38.801 120.634C39.4598 121.258 39.6624 122.137 39.2191 122.595V122.595Z" fill="#F0F0F0"/>
<path d="M44.9195 125.079C44.7295 125.677 43.8681 125.957 43.0067 125.703C42.1453 125.435 41.5752 124.735 41.7526 124.123C41.9299 123.512 42.7913 123.232 43.6654 123.499C44.5268 123.767 45.0968 124.467 44.9195 125.079Z" fill="#F0F0F0"/>
<path d="M51.1773 125.537C51.2027 126.174 50.468 126.696 49.5559 126.709C48.6438 126.734 47.8964 126.212 47.8964 125.588C47.8964 124.951 48.6185 124.429 49.5305 124.416C50.4426 124.404 51.19 124.913 51.19 125.537H51.1773Z" fill="#F0F0F0"/>
<path d="M57.0045 124.544C57.1185 125.168 56.4851 125.792 55.573 125.97C54.6863 126.135 53.8629 125.753 53.7489 125.142C53.6349 124.505 54.2809 123.869 55.1677 123.703C56.0671 123.55 56.8778 123.92 56.9918 124.544H57.0045Z" fill="#F0F0F0"/>
</g>
<defs>
<clipPath id="clip0_108_11">
<rect width="153" height="150" fill="white"/>
</clipPath>
</defs>
</svg>
