<svg width="150" height="150" viewBox="0 0 150 150" fill="none" xmlns="http://www.w3.org/2000/svg">
<path d="M127.843 127.845H105.294V88.7175C105.294 77.1746 100.386 73.6133 94.055 73.6133C87.3661 73.6133 80.8037 78.6459 80.8037 89.004V127.845H58.2559V56.2075H79.9412V66.13H80.2308C82.4117 61.7191 90.0285 54.1925 101.665 54.1925C114.247 54.1925 127.843 61.6533 127.843 83.5385V127.845ZM33.436 46.2242C26.2521 46.2242 20.4353 40.7617 20.4353 33.2817C20.4353 25.8042 26.2521 20.3292 33.436 20.3292C40.6167 20.3292 46.4335 25.8042 46.4335 33.2817C46.4335 40.7617 40.6167 46.2242 33.436 46.2242ZM44.7083 127.79H22.1604V56.1492H44.7083V127.79ZM138.926 1.7643e-05H11.077C4.96072 1.7643e-05 0 4.96085 0 11.0775V138.929C0 145.046 4.96072 150 11.077 150H138.926C145.043 150 150 145.046 150 138.929V11.0775C150 4.96085 145.043 1.7643e-05 138.926 1.7643e-05" fill="#0a66c2"/>
</svg>