<svg width="138" height="175" viewBox="0 0 138 175" fill="none" xmlns="http://www.w3.org/2000/svg">
<path d="M50 18.75C50 8.39467 58.3947 0 68.75 0C79.1053 0 87.5 8.39466 87.5 18.75V90.3135C87.5 100.669 79.1053 109.063 68.75 109.063C58.3947 109.063 50 100.669 50 90.3135V18.75Z" fill="#8381DC"/>
<path d="M0 0H37.5V31.8135L0 91.8135L0 0Z" fill="#8381DC"/>
<path d="M137.5 105.313C137.5 143.283 106.72 174.063 68.75 174.063C30.7804 174.063 0 143.283 0 105.313L37.5 44.0599V105.313C37.5 122.572 51.4911 136.563 68.75 136.563C86.0089 136.563 100 122.572 100 105.313V44.0599V0H137.5V105.313Z" fill="#8381DC"/>
</svg>
